<svg xmlns="http://www.w3.org/2000/svg" fill="none" viewBox="0 0 68 80">
  <path fill="#8F9BB3" d="M4.05 0C3.037 0 1.957.4 1.215 1.2.472 2 0 3 0 4v72c0 1 .405 2.067 1.215 2.8.81.8 1.822 1.2 2.835 1.2h59.4c1.012 0 2.092-.4 2.835-1.2.81-.8 1.215-1.8 1.215-2.8V22.667L44.55 0H4.05z"/>
  <path fill="#fff" fill-opacity=".5" d="M67.5 22.667H48.6c-1.013 0-2.093-.4-2.835-1.2-.81-.734-1.215-1.8-1.215-2.8V0L67.5 22.667z"/>
  <path fill="#BCC3D1" d="M33.596 46.344L20 38.516v15.656L33.596 62V46.344z"/>
  <path fill="#A5AFC2" d="M33.596 46.344l13.596-7.828v15.656L33.596 62V46.344z"/>
  <path fill="#fff" d="M33.592 46.365L20 38.516 33.592 31.1l13.6 7.416-13.6 7.85z"/>
</svg>
