<svg viewBox="0 0 68 80" fill="none" xmlns="http://www.w3.org/2000/svg">
<path d="M4.05 0C3.0375 0 1.9575 0.4 1.215 1.2C0.4725 2 0 3 0 4V76C0 77 0.405 78.0667 1.215 78.8C2.025 79.6 3.0375 80 4.05 80H63.45C64.4625 80 65.5425 79.6 66.285 78.8C67.095 78 67.5 77 67.5 76V22.6667L44.55 0H4.05Z" fill="#C6B9AD"/>
<path d="M67.4998 22.6667H48.5998C47.5873 22.6667 46.5073 22.2667 45.7648 21.4667C44.9548 20.7333 44.5498 19.6667 44.5498 18.6667V0L67.4998 22.6667Z" fill="#DCD2C8"/>
<path d="M31.9507 50.7186H26.9914L25.9269 54.6132H22.54L27.572 39.0108H31.5153L36.523 54.6132H33.0152L31.9507 50.7186ZM31.2733 48.1859L30.8379 46.585C30.6444 45.8841 30.3541 44.7851 29.967 43.2877L29.5073 41.5196H29.4106C28.9267 43.5745 28.4993 45.2629 28.1284 46.585L27.6929 48.1859H31.2733Z" fill="white"/>
<path d="M38.0558 42.786H41.3459V54.6132H38.0558V42.786ZM39.7009 40.9462C39.1525 40.9462 38.7009 40.7869 38.3461 40.4683C38.0074 40.1338 37.8381 39.7117 37.8381 39.202C37.8381 38.6923 38.0074 38.2781 38.3461 37.9595C38.7009 37.625 39.1525 37.4578 39.7009 37.4578C40.2492 37.4578 40.6927 37.625 41.0314 37.9595C41.3862 38.2781 41.5636 38.6923 41.5636 39.202C41.5636 39.7117 41.3862 40.1338 41.0314 40.4683C40.6927 40.7869 40.2492 40.9462 39.7009 40.9462Z" fill="white"/>
</svg>
