<svg viewBox="0 0 11 12" fill="none" xmlns="http://www.w3.org/2000/svg">
<path d="M6.04685 10.73C6.18027 10.5012 6.47561 10.4229 6.70662 10.5549C6.93768 10.6871 7.01713 10.9799 6.88372 11.2088C6.74347 11.4494 6.54158 11.649 6.29871 11.7879C6.05579 11.9268 5.78007 12 5.49958 12C5.21914 12 4.94369 11.9268 4.70082 11.7879C4.45793 11.649 4.25606 11.4494 4.11581 11.2088C3.9824 10.9799 4.06154 10.6871 4.29254 10.5549C4.52358 10.4228 4.81924 10.5012 4.95268 10.73C5.00811 10.8251 5.08785 10.904 5.18385 10.959C5.27985 11.0139 5.38873 11.0431 5.49958 11.0431C5.61047 11.0431 5.71964 11.0139 5.81567 10.959C5.91164 10.904 5.99143 10.825 6.04685 10.73Z" fill="currentColor"/>
<path d="M8.36129 3.79138C8.36129 3.03967 8.05959 2.31886 7.52297 1.78731C6.98635 1.25577 6.25864 0.956935 5.49975 0.956923C4.74084 0.956923 4.0128 1.25576 3.47617 1.78731C2.93964 2.31885 2.63821 3.03973 2.63821 3.79138C2.63821 5.08354 2.43351 5.97972 2.10619 6.66611C1.78235 7.34516 1.35268 7.78322 0.985525 8.15865C0.975816 8.16919 0.969706 8.18267 0.96738 8.19675C0.965058 8.21083 0.967015 8.2254 0.972823 8.23845C0.978641 8.25143 0.988028 8.26268 1.00004 8.27045C1.01209 8.27822 1.02631 8.2823 1.04069 8.28231H9.95918C9.97355 8.28231 9.98778 8.27819 9.99983 8.27045C10.0119 8.26267 10.0216 8.2515 10.0274 8.23845C10.0332 8.2254 10.0352 8.21084 10.0329 8.19675C10.0306 8.18293 10.0241 8.17017 10.0147 8.15973C9.64663 7.78393 9.21687 7.34556 8.89295 6.66647C8.56551 5.97995 8.36129 5.08353 8.36129 3.79138ZM9.32736 3.79138C9.32736 4.98336 9.51596 5.73137 9.76684 6.25738C9.95537 6.65266 10.1875 6.94305 10.4484 7.22329L10.7184 7.50368L10.7289 7.51483C10.8646 7.66257 10.9543 7.84645 10.9866 8.04362C11.0188 8.24073 10.9926 8.44298 10.9111 8.62561C10.8295 8.80823 10.6961 8.96347 10.5271 9.07243C10.3582 9.18136 10.1608 9.23926 9.95918 9.23923H1.03996C0.838283 9.23908 0.640908 9.18088 0.472009 9.07172C0.303161 8.96256 0.169761 8.80727 0.0884137 8.62453C0.0070607 8.44174 -0.0189066 8.23932 0.0136544 8.04218C0.0462156 7.84507 0.136157 7.66167 0.272046 7.51411L0.281844 7.50368C0.652195 7.12495 0.981282 6.7845 1.23267 6.25738C1.4835 5.73139 1.67215 4.98329 1.67215 3.79138C1.67215 2.78583 2.07535 1.82145 2.79318 1.11042C3.511 0.399396 4.4846 0 5.49975 0C6.5149 1.16214e-05 7.48851 0.399393 8.20633 1.11042C8.92414 1.82145 9.32736 2.78584 9.32736 3.79138Z" fill="currentColor"/>
</svg>
