<svg viewBox="0 0 11 11" fill="none" xmlns="http://www.w3.org/2000/svg">
<path d="M4.58774 0.0661921C5.81539 -0.127222 7.07248 0.106219 8.14894 0.727325C8.35615 0.84696 8.42705 1.11187 8.30747 1.31912C8.18785 1.52638 7.92295 1.59757 7.71567 1.47798C6.81094 0.95596 5.75463 0.759775 4.72283 0.922312C3.691 1.08487 2.74585 1.59628 2.04542 2.37121C1.34503 3.14612 0.93166 4.13784 0.873874 5.18078C0.816091 6.22373 1.11752 7.25509 1.72804 8.10265C2.33856 8.95015 3.22119 9.56277 4.22869 9.83833C5.23625 10.1139 6.30793 10.0355 7.26482 9.61665C8.22164 9.19776 9.00613 8.4637 9.48715 7.53657C9.96819 6.60937 10.1166 5.54512 9.90805 4.5216C9.86029 4.2871 10.0118 4.05831 10.2463 4.01053C10.4807 3.96276 10.7095 4.114 10.7573 4.34842C11.0055 5.56619 10.8287 6.83249 10.2564 7.93566C9.68403 9.03878 8.75061 9.91222 7.61215 10.4106C6.47371 10.9089 5.1989 11.0021 4.00018 10.6743C2.80145 10.3464 1.7513 9.61751 1.02492 8.60916C0.298549 7.60078 -0.0604093 6.37377 0.00831371 5.13292C0.0770662 3.89207 0.569213 2.71213 1.40252 1.79015C2.23584 0.868186 3.36013 0.259626 4.58774 0.0661921Z" fill="currentColor"/>
<path d="M10.126 1.12877C10.2952 0.959541 10.5694 0.959541 10.7386 1.12877C10.9078 1.298 10.9078 1.57217 10.7386 1.7414L5.73859 6.7414C5.56936 6.91062 5.29519 6.91062 5.12596 6.7414L3.62596 5.2414C3.45673 5.07217 3.45673 4.798 3.62596 4.62877C3.79518 4.45954 4.06936 4.45954 4.23859 4.62877L5.43227 5.82245L10.126 1.12877Z" fill="currentColor"/>
</svg>
