<svg viewBox="0 0 36 36" fill="currentColor" xmlns="http://www.w3.org/2000/svg">
<path d="M5.37838 9.18187L9.1695 5.38316C9.43458 5.11754 9.43458 4.6875 9.1695 4.42188L7.94927 3.19921C7.68419 2.9336 7.255 2.9336 6.98992 3.19921L3.19881 6.99793C2.93373 7.26354 2.93373 7.69358 3.19881 7.9592L4.41904 9.18187C4.68412 9.44749 5.1133 9.44749 5.37838 9.18187ZM33.8012 6.99793L30.0101 3.19921C29.745 2.9336 29.3158 2.9336 29.0507 3.19921L27.8305 4.42188C27.5654 4.6875 27.5654 5.11754 27.8305 5.38316L31.6216 9.18187C31.8867 9.44749 32.3159 9.44749 32.581 9.18187L33.8012 7.9592C34.0663 7.69358 34.0663 7.26354 33.8012 6.99793ZM32.2275 18.6049C32.2275 11.0074 26.0801 4.85193 18.5021 4.85193C10.9241 4.85193 4.77669 11.0074 4.77669 18.6049C4.77669 22.4205 6.32932 25.8734 8.83709 28.3652L5.58877 31.62C5.32789 31.8814 5.32789 32.3072 5.58877 32.5686L6.82161 33.804C7.08249 34.0653 7.50746 34.0653 7.76834 33.804L11.2775 30.2877C13.3772 31.5947 15.8513 32.3663 18.5063 32.3663C21.1613 32.3663 23.6313 31.5989 25.7351 30.2877L29.2443 33.804C29.5052 34.0653 29.9301 34.0653 30.191 33.804L31.4239 32.5686C31.6847 32.3072 31.6847 31.8814 31.4239 31.62L28.1713 28.3652C30.6749 25.8734 32.2275 22.4205 32.2275 18.6049ZM19.0701 19.895C19.0617 19.895 19.0575 19.8992 19.0491 19.8992H17.6353C17.3113 19.8992 17.0505 19.6378 17.0505 19.3132V9.88596C17.0505 9.56132 17.3113 9.29992 17.6353 9.29992H19.0491C19.3731 9.29992 19.634 9.56132 19.634 9.88596V17.3063H26.1012C26.4251 17.3063 26.686 17.5677 26.686 17.8924V19.309C26.686 19.6336 26.4251 19.895 26.1012 19.895H19.087C19.0828 19.8992 19.0743 19.895 19.0701 19.895Z" />
</svg>
