<svg viewBox="0 0 14 14" fill="none" xmlns="http://www.w3.org/2000/svg">
<g clip-path="url(#clip0_389_17426)">
<path d="M9.99917 2.00013C10.2757 2.00013 10.4992 2.22357 10.4992 2.50013V13.5001C10.4992 13.7767 10.2757 14.0001 9.99917 14.0001H4.70718C4.6479 14.0001 4.58991 13.9892 4.53531 13.9689H4.46988V13.9396C4.42783 13.9162 4.38893 13.8879 4.35464 13.8536L1.64663 11.1456C1.55288 11.0519 1.49917 10.9249 1.49917 10.7921V2.50013C1.49917 2.22373 1.72283 2.00039 1.99917 2.00013H9.99917ZM2.62417 3.12513V10.0314H4.84292C5.18824 10.0314 5.46792 10.3111 5.46792 10.6564V12.8751H9.37417V3.12513H2.62417ZM3.1232 11.0314L4.46792 12.3781V11.0314H3.1232ZM11.9992 0.000133779C12.2757 0.000133779 12.4992 0.223571 12.4992 0.500134V11.8751C12.4992 11.9439 12.4429 12.0001 12.3742 12.0001H11.4992C11.4306 11.9999 11.3742 11.9437 11.3742 11.8751V1.12513H3.62417C3.55564 1.12488 3.49918 1.06872 3.49917 1.00013V0.125134C3.49917 0.0565409 3.55564 0.000390137 3.62417 0.000133779H11.9992Z" fill="currentColor"/>
</g>
<defs>
<clipPath id="clip0_389_17426">
<rect width="14" height="14" fill="white"/>
</clipPath>
</defs>
</svg>
