<svg viewBox="0 0 14 14" fill="none" xmlns="http://www.w3.org/2000/svg">
<path d="M9.37515 2.99916V1.87416H9.50015C9.43155 1.87416 9.3754 1.8177 9.37515 1.74916V1.87416H4.62515V1.74916C4.6249 1.81757 4.56857 1.87395 4.50015 1.87416H4.62515V2.99916H9.37515ZM3.19546 4.12416L3.57339 12.1242H10.4259L10.8048 4.12416H3.19546ZM12.5001 2.99916C12.7765 2.99936 13.0001 3.22272 13.0001 3.49916V3.99916C12.9999 4.06757 12.9436 4.12395 12.8751 4.12416H11.9308L11.5451 12.296C11.5198 12.8301 11.0811 13.249 10.547 13.2492H3.45327C2.92061 13.2492 2.47948 12.8286 2.45425 12.296L2.06851 4.12416H1.12515C1.05655 4.12416 1.0004 4.0677 1.00015 3.99916V3.49916C1.00015 3.22259 1.22359 2.99916 1.50015 2.99916H3.50015V1.74916C3.50015 1.19759 3.94859 0.749157 4.50015 0.749157H9.50015C10.0515 0.749366 10.5001 1.19772 10.5001 1.74916V2.99916H12.5001Z" fill="currentColor"/>
</svg>
