<svg viewBox="0 0 14 14" fill="none" xmlns="http://www.w3.org/2000/svg">
<g clip-path="url(#clip0_389_17466)">
<path d="M6.69156 1.20033C6.98776 1.20036 7.22754 1.44028 7.22769 1.73646C7.22769 2.03277 6.98785 2.27354 6.69156 2.27357H2.35757C2.17162 2.27367 1.99297 2.34716 1.86148 2.47865C1.73 2.61018 1.65644 2.78877 1.6564 2.97474V11.6417C1.6564 11.8276 1.73015 12.0063 1.86148 12.1378C1.99297 12.2693 2.17162 12.3438 2.35757 12.3439H11.0246C11.2106 12.3439 11.3901 12.2694 11.5216 12.1378C11.6529 12.0063 11.7267 11.8276 11.7267 11.6417V7.30873C11.7267 7.01252 11.9667 6.77181 12.2628 6.77162C12.5592 6.77162 12.8 7.0124 12.8 7.30873V11.6417C12.8 12.1124 12.6132 12.5648 12.2804 12.8976C11.9476 13.2304 11.4952 13.4171 11.0246 13.4171H2.35757C1.88707 13.417 1.43541 13.2303 1.10269 12.8976C0.769869 12.5648 0.583157 12.1124 0.583157 11.6417V2.97474C0.583201 2.50417 0.76998 2.05264 1.10269 1.71986C1.43542 1.38712 1.88703 1.20043 2.35757 1.20033H6.69156ZM11.5666 0.583142C12.057 0.583142 12.5273 0.778417 12.8742 1.12513C13.221 1.47194 13.417 1.94231 13.4171 2.43275C13.4171 2.92336 13.2211 3.39443 12.8742 3.74134L7.29507 9.3224C7.08449 9.53276 6.82393 9.68617 6.53824 9.76967L4.75894 10.2902C4.6135 10.3325 4.4594 10.3346 4.31265 10.297C4.16578 10.2594 4.03121 10.1835 3.92398 10.0763C3.81673 9.96905 3.73994 9.83456 3.7023 9.68763C3.66475 9.5409 3.66777 9.38677 3.71011 9.24134L4.23062 7.46107C4.31453 7.17558 4.46924 6.91545 4.67984 6.70521L10.2589 1.12513C10.6058 0.778344 11.0761 0.583191 11.5666 0.583142ZM11.5666 1.65638C11.3608 1.65643 11.1633 1.73848 11.0177 1.88392L5.43765 7.46498C5.3546 7.54791 5.29313 7.65027 5.25992 7.76283L4.85562 9.14369L6.23745 8.74037C6.35041 8.70735 6.45303 8.64581 6.53628 8.56263L12.1164 2.98256C12.2619 2.8369 12.3429 2.63869 12.3429 2.43275C12.3428 2.22699 12.2618 2.02947 12.1164 1.88392C11.9707 1.73826 11.7726 1.65638 11.5666 1.65638Z" fill="currentColor"/>
</g>
<defs>
<clipPath id="clip0_389_17466">
<rect width="14" height="14" fill="white"/>
</clipPath>
</defs>
</svg>
