<svg width="14" height="14" viewBox="0 0 14 14" fill="none" xmlns="http://www.w3.org/2000/svg">
<g clip-path="url(#clip0_exclamation)">
<path d="M7 0C3.13437 0 0 3.13437 0 7C0 10.8656 3.13437 14 7 14C10.8656 14 14 10.8656 14 7C14 3.13437 10.8656 0 7 0ZM7 12.8125C3.79063 12.8125 1.1875 10.2094 1.1875 7C1.1875 3.79063 3.79063 1.1875 7 1.1875C10.2094 1.1875 12.8125 3.79063 12.8125 7C12.8125 10.2094 10.2094 12.8125 7 12.8125Z" fill="currentColor"/>
<path d="M7 3.0625C6.67255 3.0625 6.40625 3.3288 6.40625 3.65625V7.21875C6.40625 7.5462 6.67255 7.8125 7 7.8125C7.32745 7.8125 7.59375 7.5462 7.59375 7.21875V3.65625C7.59375 3.3288 7.32745 3.0625 7 3.0625Z" fill="currentColor"/>
<path d="M7 8.75C6.67255 8.75 6.40625 9.0163 6.40625 9.34375C6.40625 9.6712 6.67255 9.9375 7 9.9375C7.32745 9.9375 7.59375 9.6712 7.59375 9.34375C7.59375 9.0163 7.32745 8.75 7 8.75Z" fill="currentColor"/>
</g>
<defs>
<clipPath id="clip0_exclamation">
<rect width="14" height="14" fill="white"/>
</clipPath>
</defs>
</svg>
