<svg viewBox="0 0 14 14" fill="none" xmlns="http://www.w3.org/2000/svg">
<path d="M5.23013 1.89808C5.26178 1.89844 5.29197 1.91064 5.31509 1.93226L7.14029 3.67738H12.7243C12.9996 3.67738 13.2223 3.90009 13.2223 4.17543V11.6041C13.2223 11.8795 12.9996 12.1022 12.7243 12.1022H1.27603C1.0007 12.1022 0.777982 11.8795 0.777982 11.6041V2.39613C0.777982 2.1208 1.0007 1.89808 1.27603 1.89808H5.23013ZM1.8981 10.9821H12.1022V4.7975H6.69009L4.82974 3.0182H1.8981V10.9821ZM9.72232 7.76332L7.54947 9.95863L6.84439 9.24574L7.8229 8.25746H4.27798V7.24965H7.86783L6.83365 6.14613L7.55728 5.45375L9.72232 7.76332Z" fill="currentColor"/>
</svg>