<svg xmlns="http://www.w3.org/2000/svg" viewBox="0 0 18 18" fill="none">
  <path fill-rule="evenodd" clip-rule="evenodd"
        d="M3.6 4.38751C3.4136 4.38751 3.2625 4.53862 3.2625 4.72501V13.275C3.2625 13.4614 3.4136 13.6125 3.6 13.6125H14.4C14.5864 13.6125 14.7375 13.4614 14.7375 13.275V6.52501C14.7375 6.33862 14.5864 6.18751 14.4 6.18751H7.96482C7.70096 6.18751 7.4533 6.06024 7.29969 5.8457L6.35656 4.52853C6.29319 4.44002 6.19101 4.38751 6.08215 4.38751H3.6ZM2.1375 4.72501C2.1375 3.9173 2.79228 3.26251 3.6 3.26251H6.08215C6.55388 3.26251 6.99664 3.49004 7.27126 3.87359L6.81391 4.20106L7.27126 3.87359L8.12256 5.06251H14.4C15.2077 5.06251 15.8625 5.7173 15.8625 6.52501V13.275C15.8625 14.0827 15.2077 14.7375 14.4 14.7375H3.6C2.79228 14.7375 2.1375 14.0827 2.1375 13.275V4.72501Z"
        fill="currentColor"/>
</svg>
