<svg viewBox="0 0 68 80" fill="none" xmlns="http://www.w3.org/2000/svg">
<path d="M4.55 0C3.5375 0 2.4575 0.4 1.715 1.2C0.9725 2 0.5 3 0.5 4V76C0.5 77 0.905 78.0667 1.715 78.8C2.525 79.6 3.5375 80 4.55 80H63.95C64.9625 80 66.0425 79.6 66.785 78.8C67.595 78 68 77 68 76V22.6667L45.05 0H4.55Z" fill="#75A3F8"/>
<path d="M27.2928 57.092V35.394C22.8849 35.394 20.1651 38.4738 19.1804 44.6104L17.375 44.0084L18.1253 33.333H42.4861L43.0957 43.8926L41.431 44.6336C40.0242 38.5896 37.2107 35.5329 33.0138 35.4171V57.2541C32.7089 60.033 34.0219 61.4224 36.9293 61.4224V62.9044H23.3773V61.4224C26.2846 61.6076 27.5976 60.1719 27.2928 57.092Z" fill="white"/>
<path opacity="0.6" d="M42.0633 59.3612V46.1154C39.367 46.1154 37.7258 47.9911 37.0927 51.7426L35.9907 51.3721L36.4597 44.8418H51.3481L51.7233 51.2794L50.7151 51.7426C49.8476 48.0606 48.136 46.1849 45.5803 46.1154V59.4538C45.3927 61.1443 46.1899 62.0011 47.9718 62.0011V62.9042H39.6718V62.0011C41.4537 62.0937 42.2509 61.2369 42.0633 59.3612Z" fill="white"/>
<path d="M67.9998 22.6667H49.0998C48.0873 22.6667 47.0073 22.2667 46.2648 21.4667C45.4548 20.7333 45.0498 19.6667 45.0498 18.6667V0L67.9998 22.6667Z" fill="#AAC6FA"/>
</svg>
