<svg viewBox="0 0 135 107" fill="none" xmlns="http://www.w3.org/2000/svg">
<path d="M5.86158 65.9625C5.78658 66 5.71158 66.0375 5.59908 66.075C4.58658 66.4875 3.49908 66.45 2.56158 66.075C2.37408 66 2.18658 65.8875 1.99908 65.775C1.32408 65.3625 0.799079 64.7625 0.424079 64.0125C-0.550921 61.95 0.199079 59.7375 2.22408 58.7625C4.24908 57.75 6.72408 58.35 7.73658 60.375C7.73658 60.375 7.73658 60.375 7.73658 60.4125C8.71158 62.475 8.03658 64.8375 5.86158 65.9625Z" fill="white"/>
<rect x="14.5615" width="98.7" height="106.237" fill="#E4E9F2"/>
<path d="M102.649 54.8625C104.524 48.4125 100.999 40.725 94.5865 38.3625C87.949 35.925 80.1115 39.8625 77.5615 46.275C75.8365 39.525 73.8865 32.475 68.899 27.375C64.5115 22.8375 58.1365 20.5125 52.024 22.8C46.099 25.0125 41.7865 30.45 38.8615 35.85C35.1865 42.6 32.749 50.1375 31.399 57.7125C30.124 64.875 29.899 72.1875 30.6865 79.425C28.0615 73.6125 21.799 69.4875 15.274 70.2C15.049 70.2375 14.7865 70.275 14.5615 70.3125V106.237H113.262V49.9125C109.362 50.6625 105.687 52.1625 102.649 54.8625Z" fill="white"/>
<path d="M95.2616 28.275C95.6366 19.35 98.9741 16.7625 103.474 16.7625C107.787 16.7625 110.899 22.125 111.237 28.275H95.2616Z" fill="#C5CEE0"/>
<path d="M71.6366 28.275C71.6366 27.7875 71.6366 27.2625 71.6366 26.7375C72.1991 8.775 78.7616 3.5625 87.5741 3.5625C96.3866 3.5625 102.649 15.15 102.649 27.9375C102.649 28.05 102.649 28.125 102.649 28.2375H71.6366V28.275Z" fill="#C5CEE0"/>
<path d="M62.4491 28.275C62.4116 27.7125 62.4116 27.1125 62.4116 26.5125C62.8241 14.025 67.3616 10.3875 73.4741 10.3875C79.5866 10.3875 83.9741 18.45 83.9741 27.3375C83.9741 27.6375 83.9741 27.9375 83.9366 28.2375H62.4491V28.275Z" fill="#C5CEE0"/>
<path d="M58.1741 28.275C59.0741 23.2875 60.6491 21.5625 62.4866 21.5625C64.0241 21.5625 65.3366 24.225 66.1991 28.275H58.1741Z" fill="#C5CEE0"/>
<path d="M98.149 18.8625C97.5865 19.65 97.024 20.4375 96.4615 21.225C96.274 21.4875 96.724 21.75 96.9115 21.4875C97.474 20.7 98.0365 19.9125 98.599 19.125C98.7865 18.8625 98.3365 18.6 98.149 18.8625Z" fill="white"/>
<path d="M80.7492 12.6375C79.5117 11.9625 78.3117 11.25 77.0742 10.575C76.7742 10.425 76.5492 10.8375 76.8117 11.025C78.0492 11.7 79.2492 12.4125 80.4867 13.0875C80.7867 13.2375 81.0492 12.825 80.7492 12.6375Z" fill="white"/>
<path d="M42.8364 51.6752C43.0614 46.6877 44.9364 45.1877 47.4489 45.1877C49.8489 45.1877 51.6114 48.1877 51.7989 51.6752H42.8364Z" fill="#C5CEE0"/>
<path d="M29.5613 51.6751C29.5613 51.3751 29.5613 51.1126 29.5613 50.8126C29.8988 40.7251 33.5738 37.8001 38.4863 37.8001C43.4363 37.8001 46.9613 44.2876 46.9613 51.4876C46.9613 51.5626 46.9613 51.6001 46.9613 51.6751H29.5613Z" fill="#C5CEE0"/>
<path d="M24.424 51.675C24.424 51.3375 24.3865 51.0375 24.424 50.7C24.649 43.6875 27.199 41.6625 30.649 41.6625C34.099 41.6625 36.5365 46.2 36.5365 51.1875C36.5365 51.375 36.5365 51.525 36.5365 51.7125H24.424V51.675Z" fill="#C5CEE0"/>
<path d="M43.0989 46.8002C42.6489 47.1377 42.1989 47.4752 41.7489 47.8127C41.4864 48.0002 41.7489 48.4502 42.0114 48.2627C42.4614 47.9252 42.9114 47.5877 43.3614 47.2502C43.5864 47.0627 43.3614 46.6127 43.0989 46.8002Z" fill="white"/>
<rect x="118.624" y="17.175" width="15.675" height="2.3625" fill="#C5CEE0"/>
<rect x="118.624" y="23.4377" width="15.675" height="2.3625" fill="#C5CEE0"/>
<rect x="118.624" y="30.15" width="10.7625" height="2.3625" fill="#C5CEE0"/>
<path d="M123.199 80.8125C121.024 81.4875 118.811 82.1625 116.636 82.8C116.336 82.9125 116.449 83.4 116.786 83.2875C118.961 82.6125 121.174 81.9375 123.349 81.3C123.611 81.1875 123.499 80.7 123.199 80.8125Z" fill="#C5CEE0"/>
<path d="M124.774 86.9625C122.336 86.7375 119.899 86.475 117.461 86.25C117.124 86.2125 117.124 86.7375 117.461 86.7375C119.899 86.9625 122.336 87.225 124.774 87.45C125.111 87.525 125.111 87 124.774 86.9625Z" fill="#C5CEE0"/>
<path d="M11.1865 14.4375C9.49895 13.8375 7.81145 13.275 6.12395 12.675C5.82395 12.5625 5.67395 13.05 5.97395 13.1625C7.66145 13.7625 9.34895 14.325 11.0365 14.925C11.3365 15.0375 11.4865 14.55 11.1865 14.4375Z" fill="#C5CEE0"/>
<path d="M12.0864 11.1375C10.4739 9.52503 8.89892 7.95003 7.28642 6.33753C7.06142 6.11253 6.68642 6.45003 6.91142 6.71253C8.52392 8.32503 10.0989 9.90003 11.7114 11.5125C11.9739 11.7375 12.3489 11.3625 12.0864 11.1375Z" fill="#C5CEE0"/>
</svg>
