<svg fill="none" height="32" viewBox="0 0 32 32" width="32" xmlns="http://www.w3.org/2000/svg"><path d="m0 16c0-7.54247 0-11.31371 2.34315-13.65685 2.34314-2.34315 6.11438-2.34315 13.65685-2.34315 7.5425 0 11.3137 0 13.6569 2.34315 2.3431 2.34314 2.3431 6.11438 2.3431 13.65685 0 7.5425 0 11.3137-2.3431 13.6569-2.3432 2.3431-6.1144 2.3431-13.6569 2.3431-7.54247 0-11.31371 0-13.65685-2.3431-2.34315-2.3432-2.34315-6.1144-2.34315-13.6569z" fill="#36f"/><g fill="#fff"><path clip-rule="evenodd" d="m18.5337 21.9674c0 .742.9624 1.0334 1.3741.416l4.6041-6.9063c.3323-.4984-.025-1.166-.624-1.166h-3.6653v-4.2785c0-.74202-.9624-1.03342-1.374-.41599l-4.6042 6.90629c-.3323.4984.025 1.166.624 1.166h3.6653z" fill-rule="evenodd"/><g opacity=".3"><path d="m8.39983 11.3565c0-.6996.5671-1.2667 1.26666-1.2667h4.22221c.6996 0 1.2667.5671 1.2667 1.2667s-.5671 1.2667-1.2667 1.2667h-4.22221c-.69956 0-1.26666-.5671-1.26666-1.2667z"/><path d="m8.39983 21.4898c0-.6995.5671-1.2666 1.26666-1.2666h4.22221c.6996 0 1.2667.5671 1.2667 1.2666 0 .6996-.5671 1.2667-1.2667 1.2667h-4.22221c-.69956 0-1.26666-.5671-1.26666-1.2667z"/><path d="m7.9776 15.1565c-.69956 0-1.26666.5671-1.26666 1.2667 0 .6995.5671 1.2666 1.26666 1.2666h3.3778c.6995 0 1.2666-.5671 1.2666-1.2666 0-.6996-.5671-1.2667-1.2666-1.2667z"/></g></g></svg>