<svg viewBox="0 0 36 36" fill="currentColor" xmlns="http://www.w3.org/2000/svg">
<path fill-rule="evenodd" clip-rule="evenodd" d="M2 7.5C2 6.04131 2.57946 4.64236 3.61091 3.61091C4.64236 2.57946 6.04131 2 7.5 2H28.5C29.2223 2 29.9375 2.14226 30.6048 2.41866C31.2721 2.69506 31.8784 3.10019 32.3891 3.61091C32.8998 4.12163 33.3049 4.72795 33.5813 5.39524C33.8577 6.06253 34 6.77773 34 7.5V28.5C34 29.2223 33.8577 29.9375 33.5813 30.6048C33.3049 31.2721 32.8998 31.8784 32.3891 32.3891C31.8784 32.8998 31.2721 33.3049 30.6048 33.5813C29.9375 33.8577 29.2223 34 28.5 34H7.5C6.77773 34 6.06253 33.8577 5.39524 33.5813C4.72795 33.3049 4.12163 32.8998 3.61091 32.3891C3.10019 31.8784 2.69506 31.2721 2.41866 30.6048C2.14226 29.9375 2 29.2223 2 28.5V7.5ZM7.5 5C6.12 5 5 6.12 5 7.5V28.5C5 29.88 6.12 31 7.5 31H28.5C29.88 31 31 29.88 31 28.5V7.5C31 6.12 29.88 5 28.5 5H7.5Z" />
<path d="M26 8H20C18.8954 8 18 8.89543 18 10V26C18 27.1046 18.8954 28 20 28H26C27.1046 28 28 27.1046 28 26V10C28 8.89543 27.1046 8 26 8Z" />
</svg>
