<svg viewBox="0 0 11 11" fill="none" xmlns="http://www.w3.org/2000/svg">
<path d="M0 9.47888V2.04982C0 1.64637 0.160035 1.25929 0.445308 0.97401C0.730582 0.688732 1.11766 0.528695 1.5211 0.528695H5.23557C5.48956 0.528695 5.69539 0.734527 5.69539 0.98852C5.69539 1.24251 5.48956 1.44835 5.23557 1.44835H1.5211C1.3616 1.44835 1.20861 1.51175 1.09582 1.62454C0.983042 1.73732 0.919636 1.89031 0.919636 2.04982V9.47888C0.919636 9.63838 0.983042 9.79137 1.09582 9.90416C1.20861 10.0169 1.3616 10.0803 1.5211 10.0803H8.95004C9.10954 10.0803 9.26253 10.0169 9.37531 9.90416C9.4881 9.79137 9.5515 9.63838 9.5515 9.47888V5.76435C9.5515 5.51035 9.75733 5.30452 10.0113 5.30452C10.2653 5.30452 10.4711 5.51035 10.4711 5.76435V9.47888C10.4711 9.88232 10.3111 10.2694 10.0258 10.5547C9.74056 10.84 9.35348 11 8.95004 11H1.5211C1.11766 11 0.730582 10.84 0.445308 10.5547C0.160035 10.2694 0 9.88232 0 9.47888Z" fill="currentColor"/>
<path d="M10.08 1.58538C10.08 1.40889 10.0099 1.23966 9.88517 1.11484C9.76032 0.989986 9.59087 0.919651 9.4143 0.919651C9.23775 0.919664 9.06827 0.989997 8.94343 1.11484L4.16077 5.89827C4.08956 5.96936 4.03689 6.05708 4.00842 6.15358L4.00876 6.15392L3.66226 7.33717L4.84618 6.99135C4.94304 6.96306 5.03112 6.91066 5.10251 6.83934L9.88517 2.05626C10.01 1.9314 10.08 1.76194 10.08 1.58538ZM11 1.58538C11 2.0059 10.8327 2.40943 10.5353 2.70679L5.75269 7.49021C5.57218 7.67054 5.34914 7.80246 5.10424 7.87403L3.57969 8.3197L3.57935 8.32004C3.45454 8.35644 3.32216 8.35852 3.19622 8.32626C3.07033 8.294 2.95545 8.22848 2.86354 8.13659C2.77161 8.04466 2.70579 7.9295 2.67353 7.80356C2.64132 7.6777 2.64373 7.5455 2.68009 7.42077L3.12575 5.89585L3.12609 5.89551C3.19799 5.65063 3.33033 5.4277 3.51094 5.2474L8.29326 0.464317C8.59059 0.166999 8.99382 1.31337e-05 9.4143 0C9.83477 0 10.238 0.167018 10.5353 0.464317C10.8327 0.76164 11 1.1649 11 1.58538Z" fill="currentColor"/>
</svg>
