<svg viewBox="0 0 30 30" fill="none" xmlns="http://www.w3.org/2000/svg">
<rect width="30" height="30" rx="15" fill="#3366FF"/>
<rect x="0.46875" y="0.46875" width="29.0625" height="29.0625" rx="14.5312" stroke="black" stroke-opacity="0.1" stroke-width="0.9375"/>
<path d="M19.6484 8.875H10.3516C10.1096 8.875 9.91406 9.07051 9.91406 9.3125V18.3359C9.91406 18.5779 10.1096 18.7734 10.3516 18.7734H19.6484C19.8904 18.7734 20.0859 18.5779 20.0859 18.3359V9.3125C20.0859 9.07051 19.8904 8.875 19.6484 8.875ZM12.1016 12.4844C12.1016 12.0318 12.4693 11.6641 12.9219 11.6641C13.3744 11.6641 13.7422 12.0318 13.7422 12.4844C13.7422 12.9369 13.3744 13.3047 12.9219 13.3047C12.4693 13.3047 12.1016 12.9369 12.1016 12.4844ZM17.1875 15.875C17.1875 15.9352 17.1383 15.9844 17.0781 15.9844H12.9219C12.8617 15.9844 12.8125 15.9352 12.8125 15.875V15.0547C12.8125 14.9945 12.8617 14.9453 12.9219 14.9453H17.0781C17.1383 14.9453 17.1875 14.9945 17.1875 15.0547V15.875ZM17.0781 13.3047C16.6256 13.3047 16.2578 12.9369 16.2578 12.4844C16.2578 12.0318 16.6256 11.6641 17.0781 11.6641C17.5307 11.6641 17.8984 12.0318 17.8984 12.4844C17.8984 12.9369 17.5307 13.3047 17.0781 13.3047ZM18.9238 19.8125H11.0762C10.8875 19.8125 10.7344 20.008 10.7344 20.25V21.0156C10.7344 21.0758 10.7727 21.125 10.8191 21.125H19.1795C19.226 21.125 19.2643 21.0758 19.2643 21.0156V20.25C19.2656 20.008 19.1125 19.8125 18.9238 19.8125V19.8125Z" fill="white"/>
</svg>