<svg viewBox="0 0 31 36" fill="none" xmlns="http://www.w3.org/2000/svg">
<path d="M1.83599 0C1.37699 0 0.887396 0.18 0.550798 0.54C0.214199 0.9 0 1.35 0 1.8V34.2C0 34.65 0.183599 35.13 0.550798 35.46C0.917996 35.82 1.37699 36 1.83599 36H28.7639C29.2229 36 29.7125 35.82 30.0491 35.46C30.4163 35.1 30.5999 34.65 30.5999 34.2V10.2L20.1959 0H1.83599Z" fill="#F7622C"/>
<path d="M30.5998 10.2H22.0319C21.5729 10.2 21.0833 10.02 20.7467 9.66C20.3795 9.33 20.1959 8.85 20.1959 8.4V0L30.5998 10.2Z" fill="white" fill-opacity="0.5"/>
<path fill-rule="evenodd" clip-rule="evenodd" d="M16.0266 15L17.5117 15.3579L13.9734 29L12.4883 28.6421L16.0266 15ZM11.3318 18.9473L8.16479 22L11.3318 25.0527L10.2494 26.096L6 22L10.2494 17.904L11.3318 18.9473ZM19.7506 17.904L24 22L19.7506 26.096L18.6682 25.0527L21.8352 22L18.6682 18.9473L19.7506 17.904Z" fill="white"/>
</svg>
