<svg viewBox="0 0 36 36" fill="currentColor" xmlns="http://www.w3.org/2000/svg">
<path d="M34.0726 5.14525H10.6084C10.4316 5.14525 10.2869 5.28989 10.2869 5.46667V7.71668C10.2869 7.89346 10.4316 8.0381 10.6084 8.0381H34.0726C34.2494 8.0381 34.3941 7.89346 34.3941 7.71668V5.46667C34.3941 5.28989 34.2494 5.14525 34.0726 5.14525ZM34.0726 16.556H10.6084C10.4316 16.556 10.2869 16.7006 10.2869 16.8774V19.1274C10.2869 19.3042 10.4316 19.4488 10.6084 19.4488H34.0726C34.2494 19.4488 34.3941 19.3042 34.3941 19.1274V16.8774C34.3941 16.7006 34.2494 16.556 34.0726 16.556ZM34.0726 27.9667H10.6084C10.4316 27.9667 10.2869 28.1113 10.2869 28.2881V30.5381C10.2869 30.7149 10.4316 30.8595 10.6084 30.8595H34.0726C34.2494 30.8595 34.3941 30.7149 34.3941 30.5381V28.2881C34.3941 28.1113 34.2494 27.9667 34.0726 27.9667ZM1.60836 6.59168C1.60836 6.88715 1.66656 7.17973 1.77963 7.45271C1.8927 7.7257 2.05844 7.97373 2.26737 8.18267C2.4763 8.3916 2.72434 8.55733 2.99732 8.6704C3.27031 8.78348 3.56289 8.84168 3.85836 8.84168C4.15383 8.84168 4.44642 8.78348 4.7194 8.6704C4.99238 8.55733 5.24042 8.3916 5.44935 8.18267C5.65828 7.97373 5.82402 7.7257 5.93709 7.45271C6.05016 7.17973 6.10836 6.88715 6.10836 6.59168C6.10836 6.2962 6.05016 6.00362 5.93709 5.73064C5.82402 5.45765 5.65828 5.20962 5.44935 5.00068C5.24042 4.79175 4.99238 4.62602 4.7194 4.51295C4.44642 4.39987 4.15383 4.34167 3.85836 4.34167C3.56289 4.34167 3.27031 4.39987 2.99732 4.51295C2.72434 4.62602 2.4763 4.79175 2.26737 5.00068C2.05844 5.20962 1.8927 5.45765 1.77963 5.73064C1.66656 6.00362 1.60836 6.2962 1.60836 6.59168ZM1.60836 18.0024C1.60836 18.2979 1.66656 18.5904 1.77963 18.8634C1.8927 19.1364 2.05844 19.3844 2.26737 19.5934C2.4763 19.8023 2.72434 19.968 2.99732 20.0811C3.27031 20.1942 3.56289 20.2524 3.85836 20.2524C4.15383 20.2524 4.44642 20.1942 4.7194 20.0811C4.99238 19.968 5.24042 19.8023 5.44935 19.5934C5.65828 19.3844 5.82402 19.1364 5.93709 18.8634C6.05016 18.5904 6.10836 18.2979 6.10836 18.0024C6.10836 17.7069 6.05016 17.4143 5.93709 17.1414C5.82402 16.8684 5.65828 16.6203 5.44935 16.4114C5.24042 16.2025 4.99238 16.0367 4.7194 15.9237C4.44642 15.8106 4.15383 15.7524 3.85836 15.7524C3.56289 15.7524 3.27031 15.8106 2.99732 15.9237C2.72434 16.0367 2.4763 16.2025 2.26737 16.4114C2.05844 16.6203 1.8927 16.8684 1.77963 17.1414C1.66656 17.4143 1.60836 17.7069 1.60836 18.0024ZM1.60836 29.4131C1.60836 29.7086 1.66656 30.0012 1.77963 30.2741C1.8927 30.5471 2.05844 30.7952 2.26737 31.0041C2.4763 31.213 2.72434 31.3788 2.99732 31.4918C3.27031 31.6049 3.56289 31.6631 3.85836 31.6631C4.15383 31.6631 4.44642 31.6049 4.7194 31.4918C4.99238 31.3788 5.24042 31.213 5.44935 31.0041C5.65828 30.7952 5.82402 30.5471 5.93709 30.2741C6.05016 30.0012 6.10836 29.7086 6.10836 29.4131C6.10836 29.1176 6.05016 28.825 5.93709 28.5521C5.82402 28.2791 5.65828 28.031 5.44935 27.8221C5.24042 27.6132 4.99238 27.4475 4.7194 27.3344C4.44642 27.2213 4.15383 27.1631 3.85836 27.1631C3.56289 27.1631 3.27031 27.2213 2.99732 27.3344C2.72434 27.4475 2.4763 27.6132 2.26737 27.8221C2.05844 28.031 1.8927 28.2791 1.77963 28.5521C1.66656 28.825 1.60836 29.1176 1.60836 29.4131Z" />
</svg>
