<svg viewBox="0 0 9 12" fill="none" xmlns="http://www.w3.org/2000/svg">
<path d="M8.00861 10.8357V9.68699C8.00861 9.20971 7.81963 8.75205 7.48349 8.41456C7.14735 8.07707 6.6915 7.88734 6.21613 7.88734H2.78387C2.3085 7.88734 1.85265 8.07708 1.51651 8.41456C1.18037 8.75205 0.991393 9.20971 0.991393 9.68699V10.8357C0.991393 11.1106 0.769503 11.3333 0.495696 11.3333C0.22189 11.3333 0 11.1106 0 10.8357V9.68699C0 8.94569 0.293145 8.23466 0.815236 7.71048C1.33733 7.1863 2.04552 6.89198 2.78387 6.89198H6.21613C6.95448 6.89198 7.66267 7.1863 8.18476 7.71048C8.70685 8.23466 9 8.94569 9 9.68699V10.8357C9 11.1106 8.77811 11.3333 8.5043 11.3333C8.2305 11.3333 8.00861 11.1106 8.00861 10.8357Z" fill="currentColor"/>
<path d="M6.29248 2.79501C6.29248 1.80113 5.48992 0.995359 4.5 0.995359C3.51008 0.995359 2.70752 1.80113 2.70752 2.79501C2.70752 3.78888 3.51008 4.59466 4.5 4.59466C5.48992 4.59466 6.29248 3.78888 6.29248 2.79501ZM7.28387 2.79501C7.28387 4.33869 6.03753 5.59001 4.5 5.59001C2.96247 5.59001 1.71613 4.33869 1.71613 2.79501C1.71613 1.25133 2.96247 0 4.5 0C6.03753 0 7.28387 1.25133 7.28387 2.79501Z" fill="currentColor"/>
</svg>
