<svg xmlns="http://www.w3.org/2000/svg" fill="none" viewBox="0 0 68 68">
  <path fill="#8F9BB3" fill-rule="evenodd" d="M18.923 22.2l22.837-3.193a.774.774 0 01.605.177.751.751 0 01.263.566V48.57a.742.742 0 01-.262.565.765.765 0 01-.605.177l-22.836-3.11a.765.765 0 01-.469-.25.745.745 0 01-.187-.492v-22.52c0-.371.278-.688.654-.742zm25.734 1.959h5.22c.23 0 .451.09.614.251a.85.85 0 01.255.606v18.285a.85.85 0 01-.255.606.876.876 0 01-.615.252h-5.22v-20zm-20.441 17h3.23l3.112-4.775h.179l3.073 4.774h3.41l-4.639-7.05 4.707-7.041h-3.35l-3.013 4.932h-.178l-2.983-4.932h-3.519l4.54 6.992-4.57 7.1z" clip-rule="evenodd"/>
</svg>
