<svg viewBox="0 0 68 80" fill="none" xmlns="http://www.w3.org/2000/svg">
<path d="M4.05 0C3.0375 0 1.9575 0.4 1.215 1.2C0.4725 2 0 3 0 4V76C0 77 0.405 78.0667 1.215 78.8C2.025 79.6 3.0375 80 4.05 80H63.45C64.4625 80 65.5425 79.6 66.285 78.8C67.095 78 67.5 77 67.5 76V22.6667L44.55 0H4.05Z" fill="#59D4B7"/>
<path fill-rule="evenodd" clip-rule="evenodd" d="M48.4706 34.1333H18.9218C18.0152 34.1333 17.2803 34.8593 17.2803 35.7549V61.6954C17.2803 62.5905 18.0152 63.3157 18.9218 63.3157H48.4706C49.3773 63.3157 50.1123 62.5905 50.1123 61.6954V35.7549C50.1123 34.8593 49.3773 34.1333 48.4706 34.1333ZM45.1865 58.4517H22.2044V50.3459L27.1291 45.4816L35.3372 53.5883L40.2618 48.7237L45.1865 53.5883V58.4517ZM38.6196 42.2397C38.6196 44.0305 40.0893 45.482 41.9026 45.482C43.7159 45.482 45.1858 44.0305 45.1858 42.2397C45.1858 40.4482 43.7158 38.9972 41.9026 38.9972C40.0894 38.9972 38.6196 40.4482 38.6196 42.2397Z" fill="white"/>
<path d="M67.4998 22.6667H48.5998C47.5873 22.6667 46.5073 22.2667 45.7648 21.4667C44.9548 20.7333 44.5498 19.6667 44.5498 18.6667V0L67.4998 22.6667Z" fill="#8AECD5"/>
</svg>
