<svg  viewBox="0 0 36 36" fill="none" xmlns="http://www.w3.org/2000/svg">
<path d="M8.6792 27.6476H11.8935C12.0703 27.6476 12.2149 27.503 12.2149 27.3262V8.68335C12.2149 8.50656 12.0703 8.36192 11.8935 8.36192H8.6792C8.50241 8.36192 8.35777 8.50656 8.35777 8.68335V27.3262C8.35777 27.503 8.50241 27.6476 8.6792 27.6476ZM16.3935 16.3976H19.6078C19.7846 16.3976 19.9292 16.253 19.9292 16.0762V8.68335C19.9292 8.50656 19.7846 8.36192 19.6078 8.36192H16.3935C16.2167 8.36192 16.0721 8.50656 16.0721 8.68335V16.0762C16.0721 16.253 16.2167 16.3976 16.3935 16.3976ZM24.1078 19.2905H27.3221C27.4988 19.2905 27.6435 19.1459 27.6435 18.9691V8.68335C27.6435 8.50656 27.4988 8.36192 27.3221 8.36192H24.1078C23.931 8.36192 23.7863 8.50656 23.7863 8.68335V18.9691C23.7863 19.1459 23.931 19.2905 24.1078 19.2905ZM32.7863 1.93335H3.21491C2.50375 1.93335 1.9292 2.5079 1.9292 3.21906V32.7905C1.9292 33.5017 2.50375 34.0762 3.21491 34.0762H32.7863C33.4975 34.0762 34.0721 33.5017 34.0721 32.7905V3.21906C34.0721 2.5079 33.4975 1.93335 32.7863 1.93335ZM31.1792 31.1834H4.82206V4.82621H31.1792V31.1834Z" fill="currentColor"/>
</svg>
