<svg xmlns="http://www.w3.org/2000/svg" fill="none" viewBox="0 0 68 68">
  <path fill="#8F9BB3" d="M18.269 26.195h4.901c1.769 0 3.17.39 4.204 1.17 1.05.765 1.574 2.023 1.574 3.776 0 1.72-.532 3.018-1.596 3.894-1.064.876-2.428 1.314-4.092 1.314h-1.911v5.448h-3.08V26.195zm4.789 7.55c1.918 0 2.878-.868 2.878-2.604 0-.829-.248-1.426-.742-1.792-.48-.367-1.222-.55-2.226-.55h-1.62v4.946h1.71zM34.3 42.084c-.719 0-1.468-.152-2.248-.454a6.903 6.903 0 01-2-1.195l1.393-2.055c.525.43 1.02.749 1.484.956.48.207.967.31 1.462.31.51 0 .891-.095 1.146-.286.255-.207.382-.494.382-.86 0-.255-.104-.478-.314-.67-.195-.19-.48-.366-.855-.525a34.7 34.7 0 00-1.124-.502c-.884-.366-1.611-.812-2.18-1.338-.555-.541-.833-1.25-.833-2.126 0-1.083.383-1.96 1.147-2.628.764-.685 1.776-1.028 3.035-1.028 1.38 0 2.66.494 3.845 1.482l-1.371 1.959c-.885-.67-1.68-1.004-2.384-1.004-.465 0-.817.096-1.056.287-.225.191-.338.446-.338.765 0 .318.15.58.45.788.3.191.644.358 1.034.502.39.143.645.239.765.286.944.367 1.686.813 2.225 1.339.555.51.832 1.25.832 2.222 0 .716-.18 1.361-.54 1.935-.344.557-.854 1.004-1.528 1.338-.675.334-1.484.502-2.428.502zM44.9 42.084c-1.393 0-2.503-.55-3.327-1.649-.81-1.099-1.214-2.612-1.214-4.54 0-1.242.217-2.333.652-3.273.435-.94 1.004-1.665 1.709-2.174.72-.51 1.476-.765 2.27-.765.585 0 1.087.104 1.507.31.42.208.847.526 1.281.956l-.112-1.84V25h3.08v16.797h-2.518l-.225-1.218h-.067c-.42.446-.9.812-1.44 1.099a3.447 3.447 0 01-1.595.406zm.788-2.676c.39 0 .741-.088 1.056-.263.315-.191.622-.486.922-.884v-5.066c-.57-.557-1.23-.836-1.978-.836-.615 0-1.132.303-1.552.908-.42.605-.63 1.466-.63 2.58 0 1.18.188 2.071.563 2.677.374.589.914.884 1.618.884z"/>
</svg>
