<svg xmlns="http://www.w3.org/2000/svg" fill="none" viewBox="0 0 68 68">
  <path fill="#8F9BB3" d="M15.556 28.244v1.644h-4.032v.84h4.032v2.124h-4.752v.84h3.972c-.864 1.644-2.256 2.988-4.176 4.044l.492.804c2.04-1.272 3.492-2.88 4.356-4.848h.108v5.472h.888v-5.472h.096c.792 1.776 2.22 3.372 4.26 4.812l.6-.768c-1.968-1.188-3.36-2.532-4.164-4.044h3.96v-.84h-4.752v-2.124h4.116v-.84h-4.116v-1.644h-.888zm17.364 1.224H28.9v9.204h.828v-.792h2.352v.768h.84v-9.18zm-3.192 7.608v-6.804h2.352v6.804h-2.352zm-5.364-6.444h1.164a20.46 20.46 0 01-.156 2.388h-2.628v.828h2.508c-.06.312-.132.612-.204.9-.408 1.404-1.248 2.568-2.52 3.492l.564.696c1.272-.912 2.148-2.04 2.64-3.384.564.624 1.248 1.5 2.064 2.652l.516-.792a35.652 35.652 0 00-2.352-2.652c.072-.288.132-.6.192-.912h2.124v-.828h-2.004c.084-.72.132-1.524.144-2.388h1.752v-.828H24.7c.168-.456.324-.948.468-1.464l-.852-.18c-.36 1.38-.924 2.64-1.716 3.792l.756.48c.372-.552.708-1.152 1.008-1.8zm12.756 2.364c.288.42.648.972 1.068 1.668l.18-.276.324.432c1.308-.504 2.424-1.104 3.336-1.812.84.66 1.872 1.248 3.12 1.776l.384-.804c-1.128-.42-2.1-.912-2.904-1.476.816-.756 1.452-1.608 1.884-2.568v-.672h-3.384c.144-.288.276-.588.396-.9l-.828-.18c-.552 1.332-1.26 2.412-2.136 3.24l.552.66c.348-.348.684-.732.996-1.14a8.25 8.25 0 001.284 1.524c-.768.564-1.692 1.056-2.748 1.488l.012-.012a27.555 27.555 0 00-1.536-1.92v-.648h1.308v-.828H37.12v-2.34h-.852v2.34h-1.596v.828h1.584a11.287 11.287 0 01-1.824 3.936l.372.936a13.56 13.56 0 001.464-3.12v6.024h.852v-6.156zm7.368 1.704h-5.076v4.476h.84v-.528h3.396v.528h.84V34.7zm-4.236 3.144v-2.34h3.396v2.34h-3.396zM41.98 32a7.007 7.007 0 01-1.44-1.68c.048-.072.084-.156.132-.228h2.892A7.375 7.375 0 0141.98 32zm4.8-1.656v.84h5.916c.096 1.512.276 2.832.552 3.972.72 2.616 1.608 3.96 2.676 4.008.612-.012 1.104-.888 1.464-2.616l-.78-.408c-.252 1.344-.504 2.028-.744 2.064-.396 0-.852-.672-1.356-1.992-.468-1.344-.78-3.012-.924-5.028h3.66v-.84h-3.708a39.978 39.978 0 01-.048-2.124H52.6c0 .732.012 1.44.048 2.124H46.78zm.18 2.832v.816h2.112v3.276c-.768.12-1.56.24-2.352.336l.204.816a60.387 60.387 0 005.592-1.056v-.84c-.84.216-1.692.42-2.58.588v-3.12h2.112v-.816H46.96zm8.34-4.896l-.72.348c.408.468.78.996 1.128 1.596l.72-.36A14.836 14.836 0 0055.3 28.28z"/>
</svg>
