<svg  viewBox="0 0 32 32" fill="none" xmlns="http://www.w3.org/2000/svg">
<g clip-path="url(#clip0_16645_7163)">
<path d="M0 16C0 7.16344 7.16344 0 16 0C24.8366 0 32 7.16344 32 16C32 24.8366 24.8366 32 16 32C7.16344 32 0 24.8366 0 16Z" fill="#D9E4FF"/>
<ellipse cx="15.9998" cy="28.1591" rx="12.16" ry="7.04" fill="#739DFF"/>
<ellipse cx="15.9997" cy="13.5998" rx="5.76" ry="5.76" fill="#739DFF"/>
</g>
<defs>
<clipPath id="clip0_16645_7163">
<path d="M0 16C0 7.16344 7.16344 0 16 0C24.8366 0 32 7.16344 32 16C32 24.8366 24.8366 32 16 32C7.16344 32 0 24.8366 0 16Z" fill="white"/>
</clipPath>
</defs>
</svg>
