<svg  viewBox="0 0 100 84" fill="none" xmlns="http://www.w3.org/2000/svg">
<rect width="100" height="84" fill="white" fill-opacity="0.01"/>
<path fill-rule="evenodd" clip-rule="evenodd" d="M41.6667 8.66634H91.6667C93.8768 8.66634 95.9964 9.54432 97.5592 11.1071C99.122 12.6699 100 14.7895 100 16.9997V75.333C100 77.5432 99.122 79.6628 97.5592 81.2256C95.9964 82.7884 93.8768 83.6664 91.6667 83.6664H8.33333C6.1232 83.6664 4.00358 82.7884 2.44078 81.2256C0.877974 79.6628 0 77.5432 0 75.333V8.66634C0 6.4562 0.877974 4.33659 2.44078 2.77378C4.00358 1.21098 6.1232 0.333008 8.33333 0.333008H33.3333C35.5435 0.333008 37.6631 1.21098 39.2259 2.77378C40.7887 4.33659 41.6667 6.4562 41.6667 8.66634Z" fill="#A6C1FF"/>
<path opacity="0.7" fill-rule="evenodd" clip-rule="evenodd" d="M0 17H100V75.3333C100 77.5435 99.122 79.6631 97.5592 81.2259C95.9964 82.7887 93.8768 83.6667 91.6667 83.6667H8.33333C6.1232 83.6667 4.00358 82.7887 2.44078 81.2259C0.877974 79.6631 0 77.5435 0 75.3333V17Z" fill="#598BFF"/>
</svg>
