<svg xmlns="http://www.w3.org/2000/svg" fill="none" viewBox="0 0 68 68">
  <path fill="#8F9BB3" d="M47.656 49.16c-3.234 0-6.108-5.395-7.648-8.891-2.567-1.05-5.39-1.998-8.11-2.648-2.412 1.549-6.467 3.847-9.598 3.847-1.95 0-3.337-.95-3.85-2.598-.41-1.348-.051-2.297.36-2.797.82-1.099 2.514-1.648 5.08-1.648 2.054 0 4.672.35 7.597 1.049a45.59 45.59 0 005.493-4.396c-.77-3.496-1.592-9.14.513-11.738 1.026-1.249 2.618-1.648 4.517-1.099 2.104.6 2.874 1.848 3.13 2.797.873 3.397-3.13 7.992-5.85 10.69.615 2.347 1.385 4.795 2.36 7.042 3.901 1.699 8.521 4.196 9.034 6.943.206.95-.102 1.848-.872 2.598-.668.55-1.386.849-2.156.849zm-4.774-7.592c1.95 3.846 3.799 5.644 4.774 5.644.154 0 .36-.05.667-.3.36-.35.36-.6.308-.8-.205-.998-1.848-2.647-5.749-4.544zm-18.991-5.145c-2.515 0-3.234.6-3.44.849-.05.1-.256.35-.05 1.049.153.6.564 1.199 1.899 1.199 1.642 0 4.003-.9 6.775-2.498-2.002-.4-3.747-.6-5.184-.6zm10.163-.3c1.642.45 3.336.999 4.927 1.598-.564-1.448-1.026-2.947-1.437-4.395a93.918 93.918 0 01-3.49 2.797zm6.365-16.134c-.565 0-.976.2-1.335.6-1.078 1.298-1.18 4.595-.36 8.79 3.132-3.246 4.826-6.243 4.415-7.841-.051-.25-.257-.95-1.694-1.349-.41-.15-.718-.2-1.026-.2z"/>
</svg>
