<svg viewBox="0 0 37 36" fill="currentColor" xmlns="http://www.w3.org/2000/svg">
<g clip-path="url(#clip0_2798_100877)">
<path d="M23.1158 15.1599C23.1158 11.785 21.3579 9.76909 18.4045 9.76909C14.5137 9.76909 10.3423 13.6359 10.3423 19.8937C10.3423 23.3855 12.0763 25.3774 15.1226 25.3774C19.8339 25.3774 23.1143 19.9867 23.1143 15.1584L23.1158 15.1599ZM36.3333 17.9962C36.3333 25.2844 31.13 28.0263 26.6767 28.1673C26.3722 28.1673 26.2552 28.1913 25.9267 28.1913C24.4732 28.1913 23.3258 27.7698 22.5983 26.9494C22.1528 26.4334 21.8949 25.7779 21.8244 25.004C20.3709 26.8324 17.8405 28.6128 14.6757 28.6128C9.63736 28.6128 6.75448 25.4959 6.75448 20.0587C6.75448 12.583 11.9338 6.51273 18.262 6.51273C21.0039 6.51273 23.2073 7.68418 24.3788 9.6761L24.4252 9.23061L24.6832 7.91817C24.7072 7.73068 24.8707 7.49669 25.0342 7.49669H27.8001C27.9171 7.49669 28.0341 7.66018 28.1046 7.75468C28.1751 7.82517 28.1991 8.01266 28.1751 8.12966L25.3627 22.5201C25.2828 22.8897 25.2436 23.2669 25.2457 23.645C25.2457 24.911 25.6207 25.1689 26.5822 25.1689C28.1751 25.1224 33.3319 24.4655 33.3319 17.9977C33.3319 8.88113 27.4491 2.99837 18.3325 2.99837C10.0588 2.99837 3.33313 9.72409 3.33313 17.9977C3.33313 26.2714 10.0588 32.9971 18.3325 32.9971C21.79 32.9951 25.1415 31.8034 27.8241 29.6223C27.8981 29.5561 27.9849 29.5058 28.0791 29.4745C28.1733 29.4433 28.273 29.4317 28.3719 29.4406C28.4707 29.4494 28.5667 29.4785 28.6539 29.526C28.7411 29.5735 28.8175 29.6385 28.8786 29.7168L29.84 30.8657C29.964 31.0256 30.0224 31.2267 30.0035 31.4282C29.9769 31.6289 29.877 31.8127 29.723 31.9442C26.5034 34.5617 22.4819 35.9931 18.3325 35.9985C8.41941 35.9985 0.333252 27.9123 0.333252 17.9992C0.333252 8.08616 8.41941 0 18.3325 0C29.0901 0 36.3318 7.2417 36.3318 17.9992L36.3333 17.9962Z" />
</g>
<defs>
<clipPath id="clip0_2798_100877">
<rect width="36" height="36" fill="white" transform="translate(0.333252)"/>
</clipPath>
</defs>
</svg>
