<svg viewBox="0 0 68 68" fill="none" xmlns="http://www.w3.org/2000/svg">
<path fill-rule="evenodd" clip-rule="evenodd" d="M26.4513 29.3334C24.9704 28.3112 24 26.6022 24 24.6667C24 21.5371 26.5371 19 29.6667 19H33.3334H35.3333H39.0001C42.1297 19 44.6667 21.5371 44.6667 24.6667C44.6667 26.6023 43.6963 28.3112 42.2153 29.3335C43.6962 30.3557 44.6666 32.0646 44.6666 34.0002C44.6666 37.1298 42.1295 39.6668 38.9999 39.6668C37.6016 39.6668 36.3216 39.1604 35.3333 38.3209V39.6668V43.3334C35.3333 46.463 32.7963 49.0001 29.6667 49.0001C26.5371 49.0001 24 46.463 24 43.3334C24 41.3979 24.9704 39.6891 26.4511 38.6668C24.9704 37.6445 24 35.9357 24 34.0002C24 32.0646 24.9704 30.3557 26.4513 29.3334ZM33.3333 33.9695C33.3333 33.9797 33.3333 33.9899 33.3333 34.0002C33.3333 34.0104 33.3333 34.0206 33.3333 34.0308V37.6667H29.6667L29.6476 37.6668C27.6313 37.6565 26 36.0188 26 34.0002C26 31.9751 27.6416 30.3335 29.6667 30.3335H33.3333V33.9695ZM35.3333 34.0248C35.3466 36.0385 36.9831 37.6668 38.9999 37.6668C41.025 37.6668 42.6666 36.0252 42.6666 34.0002C42.6666 31.9751 41.025 30.3335 38.9999 30.3335C36.9831 30.3335 35.3466 31.9618 35.3333 33.9755V34.0248ZM29.6667 39.6668L29.6476 39.6668C27.6313 39.6771 26 41.3147 26 43.3334C26 45.3585 27.6416 47.0001 29.6667 47.0001C31.6917 47.0001 33.3333 45.3585 33.3333 43.3334V39.6668H29.6667ZM29.6667 28.3333C27.6416 28.3333 26 26.6917 26 24.6667C26 22.6416 27.6416 21 29.6667 21H33.3333V28.3333H29.6667ZM39.0001 28.3333C41.0251 28.3333 42.6667 26.6917 42.6667 24.6667C42.6667 22.6416 41.0251 21 39.0001 21H35.3334V28.3333H39.0001Z" fill="#8F9BB3"/>
</svg>
