<svg viewBox="0 0 68 80" fill="none" xmlns="http://www.w3.org/2000/svg">
<path d="M4.54998 0C3.53749 0 2.45749 0.4 1.71499 1.2C0.972498 2 0.5 3 0.5 4V76C0.5 77 0.904998 78.0667 1.71499 78.8C2.52499 79.6 3.53749 80 4.54998 80H63.9497C64.9622 80 66.0422 79.6 66.7847 78.8C67.5947 78 67.9997 77 67.9997 76V22.6667L45.0498 0H4.54998Z" fill="#FF5562"/>
<path d="M47.488 62.6893C44.2191 62.6893 41.3133 57.1545 39.7567 53.5671C37.1623 52.4909 34.3084 51.5172 31.5583 50.851C29.1196 52.4397 25.0204 54.7971 21.8552 54.7971C19.8834 54.7971 18.4825 53.8234 17.9636 52.1322C17.5485 50.7485 17.9117 49.7748 18.3268 49.2623C19.157 48.1349 20.8693 47.5711 23.4637 47.5711C25.5393 47.5711 28.1856 47.9299 31.1432 48.6473C33.0631 47.3149 34.9829 45.7775 36.6953 44.1375C35.9169 40.5502 35.0867 34.7592 37.2141 32.0943C38.2519 30.8131 39.8604 30.4031 41.7803 30.9668C43.9077 31.5818 44.6861 32.863 44.9455 33.8367C45.8276 37.3215 41.7803 42.0364 39.0302 44.8037C39.6529 47.2124 40.4312 49.7236 41.4171 52.0297C45.3606 53.7721 50.0306 56.3345 50.5494 59.1532C50.757 60.1269 50.4457 61.0493 49.6673 61.8181C48.9928 62.3818 48.2664 62.6893 47.488 62.6893ZM42.6624 54.8996C44.6342 58.8457 46.5021 60.6906 47.488 60.6906C47.6437 60.6906 47.8512 60.6394 48.1626 60.3831C48.5258 60.0244 48.5258 59.7682 48.4739 59.5632C48.2664 58.5382 46.6059 56.847 42.6624 54.8996ZM23.4637 49.6211C20.9212 49.6211 20.1948 50.236 19.9872 50.4923C19.9353 50.5948 19.7278 50.851 19.9353 51.5685C20.091 52.1835 20.5061 52.7984 21.8552 52.7984C23.5156 52.7984 25.9025 51.876 28.7045 50.236C26.6808 49.826 24.9166 49.6211 23.4637 49.6211ZM33.7376 49.3136C35.3981 49.7748 37.1104 50.3385 38.7189 50.9535C38.1481 49.4673 37.6811 47.9299 37.266 46.4437C36.1245 47.4174 34.9311 48.3911 33.7376 49.3136ZM40.1718 32.7605C39.601 32.7605 39.1859 32.9655 38.8227 33.3755C37.733 34.7079 37.6292 38.0903 38.4595 42.3951C41.6246 39.064 43.337 35.9891 42.9219 34.3492C42.87 34.0929 42.6624 33.3755 41.2095 32.9655C40.7944 32.8117 40.4831 32.7605 40.1718 32.7605Z" fill="white"/>
<path d="M67.9997 22.6667H49.0998C48.0873 22.6667 47.0073 22.2667 46.2648 21.4667C45.4548 20.7333 45.0498 19.6667 45.0498 18.6667V0L67.9997 22.6667Z" fill="#FFBBC0"/>
</svg>
