<svg viewBox="0 0 68 80" fill="none" xmlns="http://www.w3.org/2000/svg">
<path d="M4.54998 0C3.53749 0 2.45749 0.4 1.71499 1.2C0.972498 2 0.5 3 0.5 4V76C0.5 77 0.904998 78.0667 1.71499 78.8C2.52499 79.6 3.53749 80 4.54998 80H63.9497C64.9622 80 66.0422 79.6 66.7847 78.8C67.5947 78 67.9997 77 67.9997 76V22.6667L45.0498 0H4.54998Z" fill="#4179EC"/>
<path d="M67.9997 22.6667H49.0998C48.0873 22.6667 47.0073 22.2667 46.2648 21.4667C45.4548 20.7333 45.0498 19.6667 45.0498 18.6667V0L67.9997 22.6667Z" fill="#6897F9"/>
<path d="M16.8647 39.0108H22.1386C24.0417 39.0108 25.5496 39.4011 26.6625 40.1816C27.7914 40.9462 28.3559 42.2046 28.3559 43.9568C28.3559 45.6771 27.7834 46.9753 26.6383 47.8514C25.4932 48.7275 24.0255 49.1655 22.2353 49.1655H20.179V54.6132H16.8647V39.0108ZM22.0176 46.5611C24.082 46.5611 25.1142 45.693 25.1142 43.9568C25.1142 43.1284 24.8481 42.5311 24.3158 42.1648C23.7998 41.7984 23.0014 41.6152 21.9209 41.6152H20.179V46.5611H22.0176Z" fill="white"/>
<path d="M34.1149 54.8999C33.3407 54.8999 32.5343 54.7486 31.6957 54.4459C30.8732 54.1433 30.1555 53.7451 29.5426 53.2513L31.0425 51.1964C31.607 51.6265 32.1392 51.9451 32.6392 52.1522C33.1553 52.3592 33.6794 52.4628 34.2117 52.4628C34.76 52.4628 35.1713 52.3672 35.4454 52.1761C35.7196 51.969 35.8567 51.6823 35.8567 51.3159C35.8567 51.061 35.7438 50.838 35.518 50.6469C35.3084 50.4557 35.0019 50.2805 34.5987 50.1212C34.1955 49.946 33.7923 49.7788 33.3891 49.6195C32.4376 49.2531 31.6554 48.8071 31.0425 48.2814C30.4458 47.7399 30.1474 47.031 30.1474 46.1549C30.1474 45.0718 30.5587 44.1957 31.3812 43.5267C32.2037 42.8417 33.2924 42.4993 34.6471 42.4993C36.1309 42.4993 37.5098 42.9931 38.7839 43.9806L37.3082 45.9399C36.3567 45.2709 35.5019 44.9364 34.7439 44.9364C34.2439 44.9364 33.8649 45.032 33.6069 45.2231C33.3649 45.4142 33.244 45.6691 33.244 45.9877C33.244 46.3063 33.4053 46.5691 33.7278 46.7762C34.0504 46.9673 34.4213 47.1346 34.8406 47.2779C35.26 47.4213 35.5341 47.5169 35.6632 47.5646C36.6792 47.931 37.4776 48.377 38.0582 48.9027C38.6549 49.4124 38.9533 50.1531 38.9533 51.1248C38.9533 51.8416 38.7597 52.4867 38.3727 53.0601C38.0017 53.6176 37.4534 54.0636 36.7276 54.3981C36.0019 54.7326 35.1309 54.8999 34.1149 54.8999Z" fill="white"/>
<path d="M45.5202 54.8999C44.0203 54.8999 42.8269 54.3504 41.9398 53.2513C41.0689 52.1522 40.6335 50.6389 40.6335 48.7115C40.6335 47.4691 40.8673 46.3779 41.335 45.4381C41.8027 44.4983 42.4156 43.7736 43.1736 43.2638C43.9478 42.7541 44.7622 42.4993 45.617 42.4993C46.246 42.4993 46.7863 42.6028 47.2379 42.8099C47.6894 43.0169 48.1491 43.3355 48.6168 43.7656L48.4958 41.9258V37.8162H51.8101V54.6132H49.1006L48.8587 53.3946H48.7861C48.3346 53.8406 47.8185 54.207 47.2379 54.4937C46.6734 54.7645 46.1008 54.8999 45.5202 54.8999ZM46.3669 52.2238C46.7863 52.2238 47.1653 52.1362 47.504 51.961C47.8427 51.7699 48.1733 51.4752 48.4958 51.077V46.0116C47.883 45.4541 47.1733 45.1753 46.3669 45.1753C45.7057 45.1753 45.1493 45.478 44.6977 46.0833C44.2461 46.6886 44.0203 47.5487 44.0203 48.6637C44.0203 49.8425 44.2219 50.7345 44.6251 51.3398C45.0283 51.9292 45.6089 52.2238 46.3669 52.2238Z" fill="white"/>
</svg>
