<svg viewBox="0 0 36 36" fill="currentColor" xmlns="http://www.w3.org/2000/svg">
<g clip-path="url(#clip0_2_53076)">
<path d="M34.5853 22.5741L31.9536 20.3241C32.0781 19.5607 32.1424 18.7812 32.1424 18.0018C32.1424 17.2223 32.0781 16.4428 31.9536 15.6794L34.5853 13.4294C34.7838 13.2595 34.9258 13.0332 34.9926 12.7806C35.0593 12.5279 35.0476 12.261 34.9589 12.0152L34.9228 11.9107C34.1983 9.8858 33.1134 8.00869 31.7206 6.37007L31.6482 6.28569C31.4793 6.08702 31.2541 5.9442 31.0023 5.87606C30.7506 5.80793 30.4841 5.81766 30.238 5.904L26.9714 7.06516C25.7661 6.07676 24.4201 5.2973 22.9656 4.75087L22.3348 1.33569C22.2872 1.07872 22.1626 0.84231 21.9774 0.657872C21.7923 0.473434 21.5554 0.349698 21.2982 0.303104L21.1897 0.283015C19.0964 -0.0946638 16.8947 -0.0946638 14.8014 0.283015L14.6929 0.303104C14.4357 0.349698 14.1988 0.473434 14.0137 0.657872C13.8285 0.84231 13.7039 1.07872 13.6563 1.33569L13.0214 4.76694C11.5786 5.31349 10.2349 6.09254 9.04377 7.07319L5.75314 5.904C5.50711 5.81698 5.24042 5.80689 4.98852 5.87507C4.73662 5.94325 4.51143 6.08646 4.34287 6.28569L4.27055 6.37007C2.87935 8.00985 1.79465 9.88665 1.06832 11.9107L1.03216 12.0152C0.851354 12.5174 1.00002 13.0799 1.40582 13.4294L4.06966 15.7036C3.9451 16.4589 3.88484 17.2303 3.88484 17.9977C3.88484 18.7692 3.9451 19.5406 4.06966 20.2919L1.40582 22.5661C1.20732 22.736 1.06525 22.9623 0.998504 23.2149C0.931758 23.4676 0.943496 23.7345 1.03216 23.9803L1.06832 24.0848C1.79555 26.1098 2.87234 27.9781 4.27055 29.6254L4.34287 29.7098C4.51184 29.9085 4.73704 30.0513 4.98879 30.1194C5.24054 30.1876 5.50703 30.1778 5.75314 30.0915L9.04377 28.9223C10.2411 29.9067 11.579 30.6861 13.0214 31.2285L13.6563 34.6598C13.7039 34.9168 13.8285 35.1532 14.0137 35.3376C14.1988 35.5221 14.4357 35.6458 14.6929 35.6924L14.8014 35.7125C16.9139 36.0922 19.0772 36.0922 21.1897 35.7125L21.2982 35.6924C21.5554 35.6458 21.7923 35.5221 21.9774 35.3376C22.1626 35.1532 22.2872 34.9168 22.3348 34.6598L22.9656 31.2446C24.4195 30.6996 25.7731 29.9176 26.9714 28.9303L30.238 30.0915C30.484 30.1785 30.7507 30.1886 31.0026 30.1204C31.2545 30.0522 31.4797 29.909 31.6482 29.7098L31.7206 29.6254C33.1188 27.9741 34.1955 26.1098 34.9228 24.0848L34.9589 23.9803C35.1397 23.4861 34.9911 22.9236 34.5853 22.5741ZM29.1009 16.1535C29.2014 16.7602 29.2536 17.383 29.2536 18.0058C29.2536 18.6285 29.2014 19.2513 29.1009 19.858L28.8357 21.4692L31.8371 24.0366C31.3821 25.0848 30.8077 26.0771 30.1255 26.9937L26.3969 25.6719L25.1353 26.7085C24.175 27.496 23.1063 28.1147 21.9491 28.5486L20.4183 29.1232L19.6991 33.0205C18.5644 33.1491 17.4187 33.1491 16.2839 33.0205L15.5647 29.1152L14.046 28.5326C12.9009 28.0986 11.8362 27.4799 10.8839 26.6964L9.62234 25.6558L5.86966 26.9897C5.18662 26.0696 4.61609 25.0772 4.15805 24.0326L7.19153 21.4411L6.93037 19.8339C6.83394 19.2352 6.78171 18.6165 6.78171 18.0058C6.78171 17.3911 6.82993 16.7763 6.93037 16.1777L7.19153 14.5705L4.15805 11.979C4.61207 10.9303 5.18662 9.94194 5.86966 9.02185L9.62234 10.3558L10.8839 9.31516C11.8362 8.53168 12.9009 7.91293 14.046 7.479L15.5688 6.90444L16.288 2.99909C17.417 2.87051 18.5701 2.87051 19.7031 2.99909L20.4223 6.89641L21.9531 7.47096C23.1063 7.90489 24.179 8.52364 25.1393 9.31114L26.4009 10.3477L30.1295 9.02587C30.8125 9.94596 31.3831 10.9384 31.8411 11.983L28.8397 14.5504L29.1009 16.1535ZM17.9996 10.5326C14.0942 10.5326 10.9281 13.6986 10.9281 17.604C10.9281 21.5094 14.0942 24.6754 17.9996 24.6754C21.9049 24.6754 25.071 21.5094 25.071 17.604C25.071 13.6986 21.9049 10.5326 17.9996 10.5326ZM21.1817 20.7861C20.7643 21.2047 20.2683 21.5366 19.7222 21.7628C19.1761 21.989 18.5907 22.1049 17.9996 22.104C16.7982 22.104 15.6692 21.6339 14.8174 20.7861C14.3989 20.3688 14.0669 19.8728 13.8408 19.3267C13.6146 18.7805 13.4986 18.1951 13.4996 17.604C13.4996 16.4027 13.9697 15.2736 14.8174 14.4219C15.6692 13.5701 16.7982 13.104 17.9996 13.104C19.2009 13.104 20.3299 13.5701 21.1817 14.4219C21.6003 14.8392 21.9322 15.3352 22.1584 15.8813C22.3845 16.4275 22.5005 17.0129 22.4996 17.604C22.4996 18.8053 22.0295 19.9344 21.1817 20.7861Z"/>
</g>
<defs>
<clipPath id="clip0_2_53076">
<rect width="36" height="36" fill="white"/>
</clipPath>
</defs>
</svg>
